<svg width="14" height="12" viewBox="0 0 14 12" fill="none" xmlns="http://www.w3.org/2000/svg">
<path fill-rule="evenodd" clip-rule="evenodd" d="M0 3.61905V8L2.05189 8.93723L2.05189 5.52814L4.76806 7.09632V10.5054L6.80078 11.679V11.6903L6.8106 11.6847L6.81995 11.6901V11.6793L8.85267 10.5057V7.625L9.56281 7.215L10.8898 9.32955L13.1188 8.04261L11.5839 5.67488C11.976 5.23125 12.2835 4.74493 12.5062 4.21591C12.7473 3.64773 12.8679 3.05114 12.8679 2.42614C12.8679 1.80682 12.751 1.34304 12.5173 1.0348C12.2836 0.726563 11.9563 0.575995 11.5356 0.583097C11.1149 0.590199 10.6241 0.755682 10.0631 1.07955L6.81995 3.65523V3.61905L4.76806 2.5V5.18723L2.05189 3.61905L2 1.5L0 0.5V3.61905ZM8.85267 5.78409L9.576 5.36648C9.81711 5.22727 10.0225 5.07457 10.1923 4.90838C10.3645 4.73793 10.4962 4.54972 10.5872 4.34375C10.6807 4.13636 10.7274 3.90909 10.7274 3.66193C10.7274 3.41193 10.6807 3.2358 10.5872 3.13352C10.4962 3.02699 10.3645 2.98651 10.1923 3.01207C10.0225 3.03338 9.81711 3.11364 9.576 3.25284L8.85267 3.67045V5.78409Z" fill="black"/>
</svg>
