<svg width="186" height="68" viewBox="0 0 186 68" fill="none" xmlns="http://www.w3.org/2000/svg">
<path d="M75.1574 54.4707V14.4232H86.0296V30.0668H100.422V14.4232H111.294V54.4707H100.422V38.8271H86.0296V54.4707H75.1574ZM136.089 41.3301V24.4351H146.883V54.4707H136.637V48.7608H136.324C135.672 50.6771 134.531 52.1763 132.902 53.2583C131.272 54.3273 129.336 54.8618 127.094 54.8618C124.995 54.8618 123.157 54.3794 121.58 53.4148C120.015 52.4501 118.796 51.1204 117.923 49.4257C117.063 47.7309 116.626 45.7885 116.613 43.5984V24.4351H127.407V41.3301C127.42 42.8163 127.798 43.983 128.541 44.8304C129.297 45.6777 130.353 46.1014 131.709 46.1014C132.608 46.1014 133.384 45.9124 134.036 45.5343C134.701 45.1432 135.209 44.5957 135.561 43.8917C135.926 43.1748 136.102 42.3209 136.089 41.3301ZM152.217 54.4707V14.4232H163.011V29.6757H163.167C163.558 28.6588 164.132 27.7267 164.888 26.8794C165.644 26.019 166.583 25.3346 167.704 24.8262C168.825 24.3047 170.128 24.044 171.615 24.044C173.596 24.044 175.48 24.572 177.266 25.6279C179.065 26.6838 180.525 28.346 181.646 30.6143C182.78 32.8826 183.347 35.8288 183.347 39.4529C183.347 42.9205 182.806 45.795 181.724 48.0764C180.655 50.3578 179.221 52.059 177.422 53.1801C175.636 54.3012 173.674 54.8618 171.536 54.8618C170.128 54.8618 168.87 54.6337 167.762 54.1774C166.667 53.7081 165.729 53.0758 164.946 52.2806C164.177 51.4724 163.584 50.5598 163.167 49.543H162.932V54.4707H152.217ZM162.776 39.4529C162.776 40.913 162.965 42.1775 163.343 43.2465C163.734 44.3024 164.282 45.1237 164.986 45.7103C165.703 46.2839 166.556 46.5707 167.547 46.5707C168.538 46.5707 169.379 46.2904 170.07 45.7299C170.774 45.1563 171.308 44.3415 171.673 43.2856C172.051 42.2166 172.24 40.939 172.24 39.4529C172.24 37.9667 172.051 36.6957 171.673 35.6398C171.308 34.5708 170.774 33.756 170.07 33.1955C169.379 32.6219 168.538 32.3351 167.547 32.3351C166.556 32.3351 165.703 32.6219 164.986 33.1955C164.282 33.756 163.734 34.5708 163.343 35.6398C162.965 36.6957 162.776 37.9667 162.776 39.4529Z" fill="black"/>
<path d="M2.58119 54V13.9525H13.4535V29.596H27.8455V13.9525H38.7178V54H27.8455V38.3564H13.4535V54H2.58119Z" fill="#E58025"/>
<path d="M25.5226 54V13.9525H42.8087C45.781 13.9525 48.3817 14.4935 50.6109 15.5755C52.8402 16.6575 54.574 18.2154 55.8124 20.249C57.0509 22.2827 57.6701 24.7205 57.6701 27.5624C57.6701 30.4304 57.0313 32.8486 55.7538 34.8171C54.4892 36.7856 52.7098 38.2717 50.4154 39.2755C48.1341 40.2793 45.4681 40.7812 42.4176 40.7812H32.0929V32.3337H40.2275C41.5051 32.3337 42.5936 32.1772 43.4931 31.8644C44.4057 31.5385 45.1031 31.0235 45.5855 30.3196C46.0808 29.6156 46.3285 28.6965 46.3285 27.5624C46.3285 26.4152 46.0808 25.4831 45.5855 24.7661C45.1031 24.0361 44.4057 23.5016 43.4931 23.1626C42.5936 22.8107 41.5051 22.6347 40.2275 22.6347H36.3949V54H25.5226ZM48.9879 35.6188L58.9998 54H47.1889L37.4117 35.6188H48.9879Z" fill="#E58025"/>
</svg>
