<svg width="16" height="12" viewBox="0 0 16 12" fill="none" xmlns="http://www.w3.org/2000/svg">
<path fill-rule="evenodd" clip-rule="evenodd" d="M0.000976562 0.424805V11.7816H3.08416V7.34532H6.50723V11.7816H7.16549H9.59041H10.2487V8.03294H10.6575L12.6514 11.7816H16.0008L13.6944 7.54726C14.2836 7.26456 14.7455 6.86268 15.0802 6.34163C15.4425 5.7834 15.6237 5.09763 15.6237 4.28432C15.6237 3.47841 15.4481 2.7871 15.0969 2.21039C14.7457 1.63368 14.254 1.1919 13.6218 0.885064C12.9897 0.578224 12.2521 0.424805 11.4093 0.424805H10.2487H7.16549H6.50723V4.86103H3.08416V0.424805H0.000976562ZM10.2487 5.63737V2.88691H10.6773C11.0396 2.88691 11.3483 2.93682 11.6033 3.03663C11.8621 3.13275 12.0599 3.28432 12.1967 3.49135C12.3372 3.69468 12.4074 3.959 12.4074 4.28432C12.4074 4.60595 12.3372 4.86658 12.1967 5.06621C12.0599 5.26584 11.8621 5.41187 11.6033 5.50429C11.3483 5.59301 11.0396 5.63737 10.6773 5.63737H10.2487Z" fill="#E58025"/>
</svg>
